<?xml version="1.0" encoding="utf-8"?>
<?xml-stylesheet type="text/xsl" href="rss1.xsl"?>
<rss version="2.0" xmlns:atom="http://www.w3.org/2005/Atom" xmlns:content="http://purl.org/rss/1.0/modules/content/" xmlns:dc="http://purl.org/dc/elements/1.1/" xmlns:media="http://search.yahoo.com/mrss/">
<channel>
 <title>Getty</title>
 <link>http://www.gettyimg.com/</link>
 <atom:link href="http://www.gettyimg.com/" rel="self" type="application/rss+xml" />

 
                <item>
                <title><![CDATA[【Cinema Center】MOVIE - The Exorcist(1973) THEATRICAL (4KHDR BDREMUX)]]></title>
                <link><![CDATA[https://sharemania.us/threads/the-exorcist-1973-theatrical-4khdr-bdremux.228905/]]></link>
                <description><![CDATA[<article>
<blockquote class="messageText SelectQuoteContainer ugc baseHtml">
<img src="https://cdn.hmv.com/r/w-1280/hmv/files/09/09911119-e2c6-4143-8f01-fd6aa8e93810.jpg" class="bbCodeImage LbImage" alt="[​IMG]" data-url="https://cdn.hmv.com/r/w-1280/hmv/files/09/09911119-e2c6-4143-8f01-fd6aa8e93810.jpg" style=""><br>
Exorcist_1973_ THEATRICAL 4KHDR10+ BDREMUX-2160.mkv<br>
Format : Matroska<br>
Format version : Version 2<br>
File size : 79.9 GiB<br>
Duration : 2 h 1 min<br>
Overall bit rate mode : Variable<br>
Overall bit rate : 93.8 Mb/s<br>
Frame rate : 23.976 FPS<br>
Movie name : The Exorcist<br>
Encoded date : 2023-09-20 08:43:15 UTC<br>
Writing application : MakeMKV v1.17.4 darwin(arm64-release)<br>
Writing library : libmakemkv v1.17.4 (1.3.10/1.5.2) darwin(arm64-release)<br>
<br>
Video<br>
ID : 1<br>
ID in the original source medium : 4113 (0x1011)<br>
Format : HEVC<br>
Format/Info : High Efficiency Video Coding<br>
Format profile : Main 10@L5.1@High<br>
HDR format : SMPTE ST 2086, HDR10 compatible<br>
Codec ID : V_MPEGH/ISO/HEVC<br>
Duration : 2 h 1 min<br>
Bit rate : 85.0 Mb/s<br>
Width : 3 840 pixels<br>
Height : 2 160 pixels<br>
Display aspect ratio : 16:9<br>
Frame rate mode : Constant<br>
Frame rate : 23.976 (24000/1001) FPS<br>
Color space : YUV<br>
Chroma subsampling : 4:2:0 (Type 2)<br>
Bit depth : 10 bits<br>
Bits/(Pixel*Frame) : 0.427<br>
Stream size : 72.4 GiB (91%)<br>
Language : English<br>
Default : No<br>
Forced : No<br>
Color range : Limited<br>
Color primaries : BT.2020<br>
Transfer characteristics : PQ<br>
Matrix coefficients : BT.2020 non-constant<br>
Mastering display color primaries : Display P3<br>
Mastering display luminance : min: 0.0001 cd/m2, max: 1000 cd/m2<br>
Maximum Content Light Level : 999 cd/m2<br>
Maximum Frame-Average Light Level : 155 cd/m2<br>
Original source medium : Blu-ray<br>
<br>
Audio #1<br>
ID : 2<br>
ID in the original source medium : 4352 (0x1100)<br>
Format : MLP FBA 16-ch<br>
Format/Info : Meridian Lossless Packing FBA with 16-channel presentation<br>
Commercial name : Dolby TrueHD with Dolby Atmos<br>
Codec ID : A_TRUEHD<br>
Duration : 2 h 1 min<br>
Bit rate mode : Variable<br>
Bit rate : 3 212 kb/s<br>
Maximum bit rate : 5 043 kb/s<br>
Channel(s) : 8 channels<br>
Channel layout : L R C LFE Ls Rs Lb Rb<br>
Sampling rate : 48.0 kHz<br>
Frame rate : 1 200.000 FPS (40 SPF)<br>
Bit depth : 24 bits<br>
Compression mode : Lossless<br>
Stream size : 2.74 GiB (3%)<br>
Title : Surround 7.1<br>
Language : English<br>
Default : Yes<br>
Forced : No<br>
Original source medium : Blu-ray<br>
Number of dynamic objects : 11<br>
Bed channel count : 1 channel<br>
Bed channel configuration : LFE<br>
<br>
Audio #2<br>
ID : 3<br>
ID in the original source medium : 4352 (0x1100)<br>
Format : AC-3<br>
Format/Info : Audio Coding 3<br>
Commercial name : Dolby Digital<br>
Codec ID : A_AC3<br>
Duration : 2 h 1 min<br>
Bit rate mode : Constant<br>
Bit rate : 448 kb/s<br>
Channel(s) : 6 channels<br>
Channel layout : L R C LFE Ls Rs<br>
Sampling rate : 48.0 kHz<br>
Frame rate : 31.250 FPS (1536 SPF)<br>
Compression mode : Lossy<br>
Stream size : 391 MiB (0%)<br>
Title : Surround 5.1<br>
Language : English<br>
Service kind : Complete Main<br>
Default : No<br>
Forced : No<br>
Original source medium : Blu-ray<br>
<br>
Audio #3<br>
ID : 4<br>
ID in the original source medium : 4353 (0x1101)<br>
Format : AC-3<br>
Format/Info : Audio Coding 3<br>
Commercial name : Dolby Digital<br>
Codec ID : A_AC3<br>
Duration : 2 h 1 min<br>
Bit rate mode : Constant<br>
Bit rate : 192 kb/s<br>
Channel(s) : 1 channel<br>
Channel layout : M<br>
Sampling rate : 48.0 kHz<br>
Frame rate : 31.250 FPS (1536 SPF)<br>
Compression mode : Lossy<br>
Stream size : 167 MiB (0%)<br>
Title : Mono<br>
Language : French<br>
Service kind : Complete Main<br>
Default : No<br>
Forced : No<br>
Original source medium : Blu-ray<br>
<br>
Audio #4<br>
ID : 5<br>
ID in the original source medium : 4354 (0x1102)<br>
Format : AC-3<br>
Format/Info : Audio Coding 3<br>
Commercial name : Dolby Digital<br>
Codec ID : A_AC3<br>
Duration : 2 h 1 min<br>
Bit rate mode : Constant<br>
Bit rate : 192 kb/s<br>
Channel(s) : 1 channel<br>
Channel layout : M<br>
Sampling rate : 48.0 kHz<br>
Frame rate : 31.250 FPS (1536 SPF)<br>
Compression mode : Lossy<br>
Stream size : 167 MiB (0%)<br>
Title : Mono<br>
Language : German<br>
Service kind : Complete Main<br>
Default : No<br>
Forced : No<br>
Original source medium : Blu-ray<br>
<br>
Audio #5<br>
ID : 6<br>
ID in the original source medium : 4355 (0x1103)<br>
Format : AC-3<br>
Format/Info : Audio Coding 3<br>
Commercial name : Dolby Digital<br>
Codec ID : A_AC3<br>
Duration : 2 h 1 min<br>
Bit rate mode : Constant<br>
Bit rate : 192 kb/s<br>
Channel(s) : 1 channel<br>
Channel layout : M<br>
Sampling rate : 48.0 kHz<br>
Frame rate : 31.250 FPS (1536 SPF)<br>
Compression mode : Lossy<br>
Stream size : 167 MiB (0%)<br>
Title : Mono<br>
Language : Italian<br>
Service kind : Complete Main<br>
Default : No<br>
Forced : No<br>
Original source medium : Blu-ray<br>
<br>
Audio #6<br>
ID : 7<br>
ID in the original source medium : 4356 (0x1104)<br>
Format : AC-3<br>
Format/Info : Audio Coding 3<br>
Commercial name : Dolby Digital<br>
Codec ID : A_AC3<br>
Duration : 2 h 1 min<br>
Bit rate mode : Constant<br>
Bit rate : 192 kb/s<br>
Channel(s) : 1 channel<br>
Channel layout : M<br>
Sampling rate : 48.0 kHz<br>
Frame rate : 31.250 FPS (1536 SPF)<br>
Compression mode : Lossy<br>
Stream size : 167 MiB (0%)<br>
Title : Mono<br>
Language : Spanish<br>
Service kind : Complete Main<br>
Default : No<br>
Forced : No<br>
Original source medium : Blu-ray<br>
<br>
Audio #7<br>
ID : 8<br>
ID in the original source medium : 4357 (0x1105)<br>
Format : AC-3<br>
Format/Info : Audio Coding 3<br>
Commercial name : Dolby Digital<br>
Codec ID : A_AC3<br>
Duration : 2 h 1 min<br>
Bit rate mode : Constant<br>
Bit rate : 192 kb/s<br>
Channel(s) : 1 channel<br>
Channel layout : M<br>
Sampling rate : 48.0 kHz<br>
Frame rate : 31.250 FPS (1536 SPF)<br>
Compression mode : Lossy<br>
Stream size : 167 MiB (0%)<br>
Title : Mono<br>
Language : Spanish<br>
Service kind : Complete Main<br>
Default : No<br>
Forced : No<br>
Original source medium : Blu-ray<br>
<br>
Audio #8<br>
ID : 9<br>
ID in the original source medium : 4358 (0x1106)<br>
Format : AC-3<br>
Format/Info : Audio Coding 3<br>
Commercial name : Dolby Digital<br>
Codec ID : A_AC3<br>
Duration : 2 h 1 min<br>
Bit rate mode : Constant<br>
Bit rate : 192 kb/s<br>
Channel(s) : 1 channel<br>
Channel layout : M<br>
Sampling rate : 48.0 kHz<br>
Frame rate : 31.250 FPS (1536 SPF)<br>
Compression mode : Lossy<br>
Stream size : 167 MiB (0%)<br>
Title : Mono<br>
Language : Japanese<br>
Service kind : Complete Main<br>
Default : No<br>
Forced : No<br>
Original source medium : Blu-ray<br>
<br>
Audio #9<br>
ID : 10<br>
ID in the original source medium : 4359 (0x1107)<br>
Format : AC-3<br>
Format/Info : Audio Coding 3<br>
Commercial name : Dolby Digital<br>
Format settings : Dolby Surround<br>
Codec ID : A_AC3<br>
Duration : 2 h 1 min<br>
Bit rate mode : Constant<br>
Bit rate : 192 kb/s<br>
Channel(s) : 2 channels<br>
Channel layout : L R<br>
Sampling rate : 48.0 kHz<br>
Frame rate : 31.250 FPS (1536 SPF)<br>
Compression mode : Lossy<br>
Stream size : 167 MiB (0%)<br>
Title : Stereo<br>
Language : English<br>
Service kind : Complete Main<br>
Default : No<br>
Forced : No<br>
Original source medium : Blu-ray<br>
<br>
Audio #10<br>
ID : 11<br>
ID in the original source medium : 4360 (0x1108)<br>
Format : AC-3<br>
Format/Info : Audio Coding 3<br>
Commercial name : Dolby Digital<br>
Format settings : Dolby Surround<br>
Codec ID : A_AC3<br>
Duration : 2 h 1 min<br>
Bit rate mode : Constant<br>
Bit rate : 192 kb/s<br>
Channel(s) : 2 channels<br>
Channel layout : L R<br>
Sampling rate : 48.0 kHz<br>
Frame rate : 31.250 FPS (1536 SPF)<br>
Compression mode : Lossy<br>
Stream size : 167 MiB (0%)<br>
Title : Stereo<br>
Language : English<br>
Service kind : Complete Main<br>
Default : No<br>
Forced : No<br>
Original source medium : Blu-ray<br>
<br>
Audio #11<br>
ID : 12<br>
ID in the original source medium : 4361 (0x1109)<br>
Format : DTS XLL<br>
Format/Info : Digital Theater Systems<br>
Commercial name : DTS-HD Master Audio<br>
Codec ID : A_DTS<br>
Duration : 2 h 1 min<br>
Bit rate mode : Variable<br>
Bit rate : 1 775 kb/s<br>
Channel(s) : 2 channels<br>
Channel layout : L R<br>
Sampling rate : 48.0 kHz<br>
Frame rate : 93.750 FPS (512 SPF)<br>
Bit depth : 24 bits<br>
Compression mode : Lossless<br>
Stream size : 1.51 GiB (2%)<br>
Title : Stereo<br>
Language : English<br>
Default : No<br>
Forced : No<br>
Original source medium : Blu-ray<br>
<br>
Audio #12<br>
ID : 13<br>
ID in the original source medium : 4361 (0x1109)<br>
Format : DTS<br>
Format/Info : Digital Theater Systems<br>
Codec ID : A_DTS<br>
Duration : 2 h 1 min<br>
Bit rate mode : Constant<br>
Bit rate : 1 509 kb/s<br>
Channel(s) : 2 channels<br>
Channel layout : L R<br>
Sampling rate : 48.0 kHz<br>
Frame rate : 93.750 FPS (512 SPF)<br>
Bit depth : 24 bits<br>
Compression mode : Lossy<br>
Stream size : 1.29 GiB (2%)<br>
Title : Stereo<br>
Language : English<br>
Default : No<br>
Forced : No<br>
Original source medium : Blu-ray<br>
<br>
Text #1<br>
ID : 14<br>
ID in the original source medium : 4768 (0x12A0)<br>
Format : PGS<br>
Codec ID : S_HDMV/PGS<br>
Codec ID/Info : Picture based subtitle format used on BDs/HD-DVDs<br>
Duration : 1 h 56 min<br>
Bit rate : 16.0 kb/s<br>
Frame rate : 0.280 FPS<br>
Count of elements : 1949<br>
Stream size : 13.3 MiB (0%)<br>
Language : Japanese<br>
Default : No<br>
Forced : No<br>
Original source medium : Blu-ray<br>
<br>
Text #2<br>
ID : 16<br>
ID in the original source medium : 4769 (0x12A1)<br>
Format : PGS<br>
Codec ID : S_HDMV/PGS<br>
Codec ID/Info : Picture based subtitle format used on BDs/HD-DVDs<br>
Duration : 1 h 56 min<br>
Bit rate : 30.0 kb/s<br>
Frame rate : 0.366 FPS<br>
Count of elements : 2554<br>
Stream size : 25.0 MiB (0%)<br>
Language : English<br>
Default : No<br>
Forced : No<br>
Original source medium : Blu-ray<br>
<br>
Text #3<br>
ID : 18<br>
ID in the original source medium : 4770 (0x12A2)<br>
Format : PGS<br>
Codec ID : S_HDMV/PGS<br>
Codec ID/Info : Picture based subtitle format used on BDs/HD-DVDs<br>
Duration : 1 h 57 min<br>
Bit rate : 20.2 kb/s<br>
Frame rate : 0.277 FPS<br>
Count of elements : 1944<br>
Stream size : 16.9 MiB (0%)<br>
Language : French<br>
Default : No<br>
Forced : No<br>
Original source medium : Blu-ray<br>
<br>
Text #4<br>
ID : 20<br>
ID in the original source medium : 4771 (0x12A3)<br>
Format : PGS<br>
Codec ID : S_HDMV/PGS<br>
Codec ID/Info : Picture based subtitle format used on BDs/HD-DVDs<br>
Duration : 2 h 1 min<br>
Bit rate : 25.8 kb/s<br>
Frame rate : 0.361 FPS<br>
Count of elements : 2628<br>
Stream size : 22.4 MiB (0%)<br>
Language : German<br>
Default : No<br>
Forced : No<br>
Original source medium : Blu-ray<br>
<br>
Text #5<br>
ID : 22<br>
ID in the original source medium : 4772 (0x12A4)<br>
Format : PGS<br>
Codec ID : S_HDMV/PGS<br>
Codec ID/Info : Picture based subtitle format used on BDs/HD-DVDs<br>
Duration : 1 h 57 min<br>
Bit rate : 26.8 kb/s<br>
Frame rate : 0.364 FPS<br>
Count of elements : 2572<br>
Stream size : 22.6 MiB (0%)<br>
Language : Italian<br>
Default : No<br>
Forced : No<br>
Original source medium : Blu-ray<br>
<br>
Text #6<br>
ID : 24<br>
ID in the original source medium : 4773 (0x12A5)<br>
Format : PGS<br>
Codec ID : S_HDMV/PGS<br>
Codec ID/Info : Picture based subtitle format used on BDs/HD-DVDs<br>
Duration : 1 h 57 min<br>
Bit rate : 25.0 kb/s<br>
Frame rate : 0.325 FPS<br>
Count of elements : 2300<br>
Stream size : 21.1 MiB (0%)<br>
Language : Spanish<br>
Default : No<br>
Forced : No<br>
Original source medium : Blu-ray<br>
<br>
Text #7<br>
ID : 26<br>
ID in the original source medium : 4774 (0x12A6)<br>
Format : PGS<br>
Codec ID : S_HDMV/PGS<br>
Codec ID/Info : Picture based subtitle format used on BDs/HD-DVDs<br>
Duration : 1 h 56 min<br>
Bit rate : 23.1 kb/s<br>
Frame rate : 0.271 FPS<br>
Count of elements : 1892<br>
Stream size : 19.2 MiB (0%)<br>
Language : Dutch<br>
Default : No<br>
Forced : No<br>
Original source medium : Blu-ray<br>
<br>
Text #8<br>
ID : 28<br>
ID in the original source medium : 4775 (0x12A7)<br>
Format : PGS<br>
Codec ID : S_HDMV/PGS<br>
Codec ID/Info : Picture based subtitle format used on BDs/HD-DVDs<br>
Duration : 1 h 57 min<br>
Bit rate : 19.2 kb/s<br>
Frame rate : 0.326 FPS<br>
Count of elements : 2302<br>
Stream size : 16.1 MiB (0%)<br>
Language : Korean<br>
Default : No<br>
Forced : No<br>
Original source medium : Blu-ray<br>
<br>
Text #9<br>
ID : 30<br>
ID in the original source medium : 4776 (0x12A8)<br>
Format : PGS<br>
Codec ID : S_HDMV/PGS<br>
Codec ID/Info : Picture based subtitle format used on BDs/HD-DVDs<br>
Duration : 1 h 56 min<br>
Bit rate : 23.5 kb/s<br>
Frame rate : 0.324 FPS<br>
Count of elements : 2274<br>
Stream size : 19.7 MiB (0%)<br>
Language : Spanish<br>
Default : No<br>
Forced : No<br>
Original source medium : Blu-ray<br>
<br>
Text #10<br>
ID : 32<br>
ID in the original source medium : 4777 (0x12A9)<br>
Format : PGS<br>
Codec ID : S_HDMV/PGS<br>
Codec ID/Info : Picture based subtitle format used on BDs/HD-DVDs<br>
Duration : 1 h 57 min<br>
Bit rate : 24.5 kb/s<br>
Frame rate : 0.335 FPS<br>
Count of elements : 2370<br>
Stream size : 20.7 MiB (0%)<br>
Language : Chinese<br>
Default : No<br>
Forced : No<br>
Original source medium : Blu-ray<br>
<br>
Text #11<br>
ID : 34<br>
ID in the original source medium : 4778 (0x12AA)<br>
Format : PGS<br>
Codec ID : S_HDMV/PGS<br>
Codec ID/Info : Picture based subtitle format used on BDs/HD-DVDs<br>
Duration : 1 h 30 min<br>
Bit rate : 371 b/s<br>
Frame rate : 0.006 FPS<br>
Count of elements : 34<br>
Stream size : 245 KiB (0%)<br>
Language : French<br>
Default : No<br>
Forced : No<br>
Original source medium : Blu-ray<br>
<br>
Text #12<br>
ID : 36<br>
ID in the original source medium : 4779 (0x12AB)<br>
Format : PGS<br>
Codec ID : S_HDMV/PGS<br>
Codec ID/Info : Picture based subtitle format used on BDs/HD-DVDs<br>
Duration : 1 h 30 min<br>
Bit rate : 289 b/s<br>
Frame rate : 0.006 FPS<br>
Count of elements : 32<br>
Stream size : 192 KiB (0%)<br>
Language : German<br>
Default : No<br>
Forced : No<br>
Original source medium : Blu-ray<br>
<br>
Text #13<br>
ID : 38<br>
ID in the original source medium : 4780 (0x12AC)<br>
Format : PGS<br>
Codec ID : S_HDMV/PGS<br>
Codec ID/Info : Picture based subtitle format used on BDs/HD-DVDs<br>
Duration : 1 h 30 min<br>
Bit rate : 358 b/s<br>
Frame rate : 0.007 FPS<br>
Count of elements : 36<br>
Stream size : 237 KiB (0%)<br>
Language : Italian<br>
Default : No<br>
Forced : No<br>
Original source medium : Blu-ray<br>
<br>
Text #14<br>
ID : 40<br>
ID in the original source medium : 4781 (0x12AD)<br>
Format : PGS<br>
Codec ID : S_HDMV/PGS<br>
Codec ID/Info : Picture based subtitle format used on BDs/HD-DVDs<br>
Duration : 1 h 44 min<br>
Bit rate : 100 b/s<br>
Frame rate : 0.002 FPS<br>
Count of elements : 10<br>
Stream size : 77.0 KiB (0%)<br>
Language : Spanish<br>
Default : No<br>
Forced : No<br>
Original source medium : Blu-ray<br>
<br>
Text #15<br>
ID : 42<br>
ID in the original source medium : 4782 (0x12AE)<br>
Format : PGS<br>
Codec ID : S_HDMV/PGS<br>
Codec ID/Info : Picture based subtitle format used on BDs/HD-DVDs<br>
Duration : 21 min 48 s<br>
Bit rate : 252 b/s<br>
Frame rate : 0.003 FPS<br>
Count of elements : 4<br>
Stream size : 40.3 KiB (0%)<br>
Language : Spanish<br>
Default : No<br>
Forced : No<br>
Original source medium : Blu-ray<br>
<br>
Text #16<br>
ID : 44<br>
ID in the original source medium : 4783 (0x12AF)<br>
Format : PGS<br>
Codec ID : S_HDMV/PGS<br>
Codec ID/Info : Picture based subtitle format used on BDs/HD-DVDs<br>
Duration : 2 h 0 min<br>
Bit rate : 41.1 kb/s<br>
Frame rate : 0.430 FPS<br>
Count of elements : 3108<br>
Stream size : 35.4 MiB (0%)<br>
Language : Japanese<br>
Default : No<br>
Forced : No<br>
Original source medium : Blu-ray<br>
<br>
Text #17<br>
ID : 46<br>
ID in the original source medium : 4784 (0x12B0)<br>
Format : PGS<br>
Codec ID : S_HDMV/PGS<br>
Codec ID/Info : Picture based subtitle format used on BDs/HD-DVDs<br>
Duration : 1 h 56 min<br>
Bit rate : 27.7 kb/s<br>
Frame rate : 0.342 FPS<br>
Count of elements : 2396<br>
Stream size : 23.1 MiB (0%)<br>
Language : Japanese<br>
Default : No<br>
Forced : No<br>
Original source medium : Blu-ray<br>
<br>
Text #18<br>
ID : 48<br>
ID in the original source medium : 4785 (0x12B1)<br>
Format : PGS<br>
Codec ID : S_HDMV/PGS<br>
Codec ID/Info : Picture based subtitle format used on BDs/HD-DVDs<br>
Duration : 1 h 30 min<br>
Bit rate : 1 015 b/s<br>
Frame rate : 0.018 FPS<br>
Count of elements : 95<br>
Stream size : 672 KiB (0%)<br>
Language : Japanese<br>
Default : No<br>
Forced : No<br>
Original source medium : Blu-ray<br>
<br>
<br>
<div class="bbCodeBlock bbCodeVfcHH HiddenContent">
<div class="attribution type">Hidden Content:</div>
<blockquote>You must reply before you can see the hidden data contained here.</blockquote>
</div>
<div class="messageTextEndMarker">&nbsp;</div>
</blockquote>
</article>]]></description>
                <author><![CDATA[BuffBuffHD]]></author>
                </item>

                
                <item>
                <title><![CDATA[【Unreleased/Unofficial (lossless)】FLAC - Taylor Swift: Better Than Revenge (Taylor's Version) (Misogynistic Version) [From The Vault] | (FLAC 16bit/48kHz)]]></title>
                <link><![CDATA[https://sharemania.us/threads/taylor-swift-better-than-revenge-taylors-version-misogynistic-version-from-the-vault-flac-16bit-48khz.228906/]]></link>
                <description><![CDATA[<article>
<blockquote class="messageText SelectQuoteContainer ugc baseHtml">
<div style="text-align: center"><span style="font-family: 'Georgia'"><span style="font-size: 22px"><img src="https://i.imgur.com/gCN7Hip.jpg" class="bbCodeImage LbImage" alt="[​IMG]" data-url="https://i.imgur.com/gCN7Hip.jpg" style=""> </span></span><br>
<b><span style="font-family: 'Georgia'"><span style="font-size: 22px"><span style="color: #b30000">Taylor Swift: Better Than Revenge (Taylor's Version) (Misogynistic Version) [From The Vault]</span></span></span></b><br>
<span style="font-family: 'Georgia'"><span style="color: #ff9999"><b>Album: </b><i>Better Than Revenge (Taylor's Version) (Misogynistic Version) [From The Vault] (Unofficial)</i><br>
<b>Artist</b>: Taylor Swift<br>
<b>Quality/Codec:</b> FLAC 16bit/48kHz<br>
<b>Release Date:</b> 07/07/2023<br>
<b>Other:</b> Instrumental from Taylor's Version with original vocals "She's better known for the things that she does on the mattress woah" overlayed. It sounds <i>fairly</i> seamless. Both the original recording and the Taylor's Versions originate from lossless FLAC, but, when you use Lossless Audio Checker it says that it's upsampled, likely due to differences between the Bit depth of the two files differing (16bit vs. 24bit) AI versions exist but they sounded too fake, so, I made this.<br>
<b>Genre:</b> Pop, Rock, Country</span><br>
<span style="color: #000000">
<div class="bbCodeBlock bbCodeQuote">
<aside>
<blockquote class="quoteContainer"><div class="quote">But now my eyes leak acid rain on the pillow where you used to lay your head/After giving you the best I had, tell me what to give after that</div><div class="quoteExpand">Click to expand...</div></blockquote>
</aside>
</div></span></span><br>
<span style="font-family: 'Georgia'"><span style="color: #000000"><br>
<b>Tracklist: </b><br>
01. Better Than Revenge (Misogynistic Version) (Taylor's Version) (From The Vault) | (<i>3:40</i>)<br>
<br>
<i>MediaInfo</i><br>
<div class="ToggleTriggerAnchor bbCodeSpoilerContainer">
<button type="button" class="button bbCodeSpoilerButton ToggleTrigger Tooltip JsOnly" data-target="> .SpoilerTarget"><span>Spoiler</span></button>
<div class="SpoilerTarget bbCodeSpoilerText">
<div class="bbCodeBlock bbCodeCode">
<div class="type">Code:</div>
<pre>General
Complete name                            : C:\Users\bradl\Documents\01. Better Than Revenge.flac
Format                                   : FLAC
Format/Info                              : Free Lossless Audio Codec
File size                                : 30.3 MiB
Duration                                 : 3 min 40 s
Overall bit rate mode                    : Variable
Overall bit rate                         : 1 155 kb/s
Album                                    : Better Than Revenge (Misogynistic Version) (Taylor's Version) (From The Vault)
Album/Performer                          : Taylor Swift
Track name                               : Better Than Revenge (Misogynistic Version) (Taylor's Version) (From The Vault)
Track name/Position                      : 01
Performer                                : Taylor Swift
Genre                                    : Rock, Hip Hop, Country
Recorded date                            : 2023
Cover                                    : Yes
Cover type                               : Cover (front)
Cover MIME                               : image/jpeg

Audio
Format                                   : FLAC
Format/Info                              : Free Lossless Audio Codec
Duration                                 : 3 min 40 s
Bit rate mode                            : Variable
Bit rate                                 : 1 100 kb/s
Channel(s)                               : 2 channels
Channel layout                           : L R
Sampling rate                            : 48.0 kHz
Bit depth                                : 16 bits
Compression mode                         : Lossless
Stream size                              : 28.9 MiB (95%)
Writing library                          : libFLAC 1.3.2 (2017-01-01)

</pre>
</div></div>
</div>
<div class="bbCodeBlock bbCodeVfcHH HiddenContent">
<div class="attribution type">Hidden Content:</div>
<blockquote>You must reply before you can see the hidden data contained here.</blockquote>
</div></span></span><br>
​</div>
<div class="messageTextEndMarker">&nbsp;</div>
</blockquote>
</article>]]></description>
                <author><![CDATA[bspengeman]]></author>
                </item>

                
                <item>
                <title><![CDATA[【Cinema Center】SERIES - Glee - Complete Season 6 (Disney+ WEB-DL) [1080p]]]></title>
                <link><![CDATA[https://sharemania.us/threads/glee-complete-season-6-disney-web-dl-1080p.228904/]]></link>
                <description><![CDATA[<article>
<blockquote class="messageText SelectQuoteContainer ugc baseHtml">
<div style="text-align: center"><img src="https://i.imgur.com/pAaX48t.jpg" class="bbCodeImage LbImage" alt="[​IMG]" data-url="https://i.imgur.com/pAaX48t.jpg" style=""> ​</div><br>
<div style="text-align: center"><b><span style="font-size: 18px">Glee</span><br>
<span style="font-size: 15px">Season 6</span><br>
<span style="font-size: 12px">WEB-DL</span></b><br>
<br>
<div class="bbCodeBlock bbCodeQuote">
<aside>
<blockquote class="quoteContainer"><div class="quote">GLEE takes its final bow with a sixth and final 13-episode season.</div><div class="quoteExpand">Click to expand...</div></blockquote>
</aside>
</div>
<div class="bbCodeBlock bbCodeVfcHH HiddenContent">
<div class="attribution type">Hidden Content:</div>
<blockquote>You must reply before you can see the hidden data contained here.</blockquote>
</div><i><b><i><b>Use base64decode.org to decode link (twice)</b></i></b></i><br>
<br>
All seasons - soon​</div>
<div class="messageTextEndMarker">&nbsp;</div>
</blockquote>
</article>]]></description>
                <author><![CDATA[lovedante]]></author>
                </item>

                </channel></rss>